<?xml version="1.0" encoding="utf-8"?>
<!-- Generator: Adobe Illustrator 24.0.1, SVG Export Plug-In . SVG Version: 6.00 Build 0)  -->
<svg version="1.1" id="Слой_1" xmlns="http://www.w3.org/2000/svg" xmlns:xlink="http://www.w3.org/1999/xlink" x="0px" y="0px"
	 viewBox="0 0 1598 1598" style="enable-background:new 0 0 1598 1598;" xml:space="preserve">
<style type="text/css">
	.st0{fill:#F7F0E3;}
	.st1{fill:#FFFFFF;}
	.st2{fill:#E9DDCA;}
	.st3{fill:#E49B31;}
	.st4{fill:#FBC343;}
	.st5{fill:#D3DFFF;}
	.st6{fill:#102048;}
	.st7{fill:#F9B384;}
	.st8{fill:#E28B6D;}
	.st9{fill:#3A6BEA;}
	.st10{opacity:0.8;}
	.st11{opacity:0.4;fill:#EB5D60;enable-background:new    ;}
	.st12{fill:#1F3C88;}
</style>
<g id="OBJECTS">
	<g>
		<g>
			<g>
				<path class="st0" d="M1493.2,1092.7c-24.1-54.8-70.4-100.6-126-123.1c-57.9-23.5-124.4-14.9-185.4-22.8
					c-53-6.8-91.2-30.5-122.8-72.5c-30.3-40.3-57.5-84.9-107-103.5c-39.2-14.7-83.7-10.6-122.6,4.7
					c-71.7,28.3-125.9,88.4-171.5,148.3c-41.6,54.7-75.6,114.6-152.7,116.5c-77.1,2-150.5-42-228.1-30.4
					c-102.6,15.4-188,100.8-205.9,202.5c-16.8,95.3,25.3,187.7,97.7,242h1243.2C1503.1,1357.7,1551,1224.1,1493.2,1092.7z"/>
				<g>
					<path class="st1" d="M369.3,1454.3h3.4c23.8-26.1,42.4-57.8,54.2-92.9c19.1-56.9,18.3-116.6-2.3-168.2
						c-10.4-26-25.5-50.3-40-73.8c-14.8-23.8-30-48.4-40.4-74.8c-4.3-10.9-7.4-22.6-9.3-34.6c-0.9-0.1-1.7-0.2-2.6-0.3
						c1.9,12.4,5.2,24.5,9.6,35.8c10.4,26.6,25.7,51.3,40.6,75.2c14.5,23.4,29.5,47.6,39.8,73.4c20.4,51,21.2,110.1,2.2,166.5
						C412.6,1396.2,393.6,1428.2,369.3,1454.3z"/>
					<path class="st1" d="M1406,1345.9c25.6,5.5,50.3,10.4,74.2,13.4c0.4-0.8,0.8-1.6,1.2-2.4c-24.1-3.1-49-8-74.9-13.5
						c-39.4-8.4-82-17.5-124.3-17.5c-26.2,0-52.2,3.5-77.3,12.8c-9.5,3.5-18.6,8-27.4,13.3c-22.6-9.6-45.4-20.2-67.9-31.7
						c16.4-12.3,32.9-24.4,49.6-36c124-86.6,238.4-135.7,348.9-149.6c-0.2-0.8-0.5-1.6-0.7-2.4c-110.8,14-225.5,63.2-349.7,150
						c-17.1,11.9-33.9,24.2-50.6,36.8c-25.3-13.1-50.4-27.5-74.6-43.4c-44-28.8-96.2-69.9-141.9-124.5
						c176.9-19.9,357.1-44.9,504.2-143.2c5.6-3.7,11.8-8.1,18.2-13.1c-0.7-0.5-1.4-1-2.1-1.5c-6.1,4.8-12.1,9-17.4,12.5
						c-147.1,98.3-327.6,123.1-504.7,143c-32.3-39-61.1-84.9-81.1-137.9c-31.2-82.7-29.6-163.8,4.5-222.6c1.5-2.6,3-5.1,4.7-7.6
						c-1.4,0.7-2.8,1.3-4.2,2c-0.9,1.4-1.7,2.8-2.6,4.3c-34.5,59.4-36.2,141.3-4.7,224.7c19.9,52.8,48.5,98.4,80.5,137.4
						c-10.3,1.1-20.5,2.3-30.7,3.4c-36.9,4.1-75,8.3-112.1,13.1c-13.5,1.7-27.3,3.8-41,6.3c-29.3-61.9-61.6-122.3-103.2-174.1
						c-0.6,0.6-1.2,1.2-1.8,1.8c41.3,51.4,73.3,111.3,102.5,172.8c-59.7,11.4-117.6,32.8-148.6,82.6
						c-28.9,46.5-28.9,110.8,0.1,191.1c1,2.8,2,5.5,3.1,8.2h2.7c-1.1-3-2.3-6-3.4-9.1c-28.7-79.5-28.8-143.1-0.3-188.9
						c30.6-49.2,88.2-70.3,147.6-81.6c10.4,21.9,20.4,44,30.3,65.9l1.1,2.4c34.5,76.2,70.2,149.8,117,211.2h3.1
						c-47.2-61.6-83.1-135.6-117.8-212.3l-1.1-2.4c-9.9-21.8-19.8-43.7-30-65.4c13.4-2.5,26.9-4.5,40.2-6.2c37-4.8,75.2-9,112-13
						c10.8-1.2,21.6-2.4,32.4-3.6c46.1,55.5,99,97.2,143.5,126.3c24,15.7,48.7,30,73.8,42.9c-42.5,32.2-83.9,66-124.3,99.1
						c-14,11.4-28.1,23-42.4,34.6h4c13.4-10.9,26.8-21.8,40-32.6c40.7-33.3,82.3-67.4,125.2-99.7c22.4,11.5,45,22,67.5,31.7
						c-30.8,19.6-55.9,49.9-71.1,86.7c-1.9,4.6-3.6,9.3-5.1,13.9h2.6c1.5-4.4,3-8.7,4.8-13c15.2-36.9,40.5-67.2,71.5-86.5
						c62.9,26.7,124.8,46.6,177.9,62.3l2,0.6c22.4,6.6,45.3,13.4,65.5,24.3c0.6-0.6,1.1-1.3,1.7-1.9c-20.6-11.2-43.8-18-66.5-24.8
						l-2-0.6c-52.6-15.6-113.7-35.2-176-61.5c8.1-4.8,16.6-8.9,25.4-12.2C1270.6,1317.1,1342.5,1332.4,1406,1345.9z"/>
					<path class="st1" d="M175,1184c11,45.2,6.1,94-13.5,133.9c-12.9,26.1-31.4,49.8-54.3,70.1c0.5,0.7,0.9,1.4,1.4,2.1
						c23.2-20.6,42.1-44.6,55.2-71.1c19.9-40.4,24.9-89.9,13.7-135.6c-8.7-35.8-26.3-66-50.6-87.9c-0.5,0.6-1.1,1.3-1.6,1.9
						C149.2,1118.9,166.4,1148.8,175,1184z"/>
				</g>
			</g>
			<path class="st0" d="M740.9,611.4c21.8,22.3,31.5,59.7,19.5,94.3c-11.6,33.5-37.1,61.2-67.7,79c-24.6,14.3-56.8,22.3-81,7.2
				c-18.1-11.2-27.5-33.2-28-54.5s6.6-42.1,15.5-61.4c12.5-27.3,29.3-53.8,54.3-70.4C687.9,582.7,719.9,590,740.9,611.4z"/>
		</g>
		<g>
			<path class="st2" d="M452.2,221.2H271.8v-80.5h180.3L452.2,221.2L452.2,221.2z M275.6,217.5h172.8v-73.1H275.6V217.5z"/>
			<path class="st2" d="M334.8,298.3H154.5v-80.6h180.3V298.3z M158.3,294.5h172.8v-73.1H158.3V294.5z"/>
		</g>
		<g>
			<g>
				<path class="st3" d="M1478.3,384.1c-11.7-38.8-32.2-74.5-61.6-107.1c-29.5-32.6-69.6-59.5-120.5-80.8
					c-50.9-21.3-115.6-31.9-194-31.9c-62.6,0-126.3,8.4-191.3,25.3s-121.4,41-169.3,72.3l62.3,171l-33.4,27l48.4,14.2
					c47.8-25,91.3-43.2,130.6-54.5c39.2-11.3,80.9-16.9,125.1-16.9c44.1,0,77.5,10.6,100.2,31.9c22.7,21.3,34,47,34,77
					c0,36.3-11.7,68.5-34.9,96.7c-23.4,28.2-49.1,56.7-77.3,85.5c-19.6,20-38.6,40.7-57,61.9c-18.4,21.3-34.7,44.1-48.7,68.6
					c-14.1,24.4-25.4,50.7-34,78.9C948.3,931.4,944,963,944,998c0,11.3,0.2,24.8,0.9,40.4c0.1,2.9,0.3,5.7,0.4,8.5h-45.8l49.9,33.8
					h242.8c-1.3-7.5-1.9-16.3-1.9-26.3s0-17.5,0-22.6c0-21.3,4.3-42.3,12.9-62.9c8.6-20.7,19.3-40.4,32.2-59.2
					c12.9-18.8,27.2-36.6,43.2-53.5c15.9-16.9,31.3-32.9,46-47.9c19.6-20,39.8-41.3,60.7-63.8c20.8-22.6,39.3-46.3,55.2-71.4
					c15.9-25.1,29.1-52.3,39.5-81.8c10.4-29.4,15.7-61.6,15.7-96.7C1495.8,459.9,1489.9,422.9,1478.3,384.1z"/>
				<path class="st4" d="M1023.1,391c-43.7,0-84.9,5.4-123.6,16.3c-38.8,10.9-81.8,28.5-129.1,52.7L694,254.6
					c47.3-30.3,103-53.6,167.3-70c64.2-16.3,127.2-24.5,189.1-24.5c77.5,0,141.4,10.3,191.7,30.9c50.3,20.6,90,46.6,119.1,78.2
					c29.1,31.5,49.4,66,60.9,103.6s17.3,73.3,17.3,107.2c0,34-5.2,65.2-15.5,93.6c-10.3,28.5-23.3,54.9-39.1,79.1
					s-34,47.2-54.6,69.1c-20.6,21.8-40.6,42.4-59.9,61.8c-14.6,14.6-29.7,30-45.4,46.4c-15.8,16.3-30,33.6-42.7,51.8
					c-12.7,18.2-23.4,37.3-31.8,57.3c-8.5,20-12.7,40.3-12.7,60.9c0,4.9,0,12.1,0,21.8s0.6,18.2,1.8,25.4h-240
					c-2.5-12.1-4-25.7-4.6-40.9c-0.7-15.1-0.9-28.2-0.9-39.1c0-33.9,4.2-64.5,12.7-91.8s19.6-52.7,33.6-76.3
					c13.9-23.7,30-45.7,48.2-66.4c18.2-20.6,37-40.6,56.3-59.9c27.9-27.9,53.3-55.4,76.4-82.7c23-27.3,34.5-58.5,34.5-93.6
					c0-29.1-11.2-53.9-33.6-74.6C1099.7,401.2,1066.7,391,1023.1,391z"/>
			</g>
			<g>
				<path class="st3" d="M1208.8,1316.7c0,43.8-14.2,77.6-42.5,101.4c-28.3,23.9-60.4,35.8-96.1,35.8c-35.8,0-67.9-11.9-96.2-35.8
					c-28.3-23.8-42.5-57.6-42.5-101.4c0-43.7,14.2-77.5,42.5-101.4c43.6-36.8,108.2-45,159.3-19.2
					C1178.6,1219.1,1208.8,1265.6,1208.8,1316.7z"/>
				<path class="st4" d="M1161.3,1316.7c0,43.8-14.2,77.6-42.5,101.4c-28.3,23.9-60.4,35.8-96.1,35.8c-35.8,0-67.9-11.9-96.2-35.8
					c-28.3-23.8-42.5-57.6-42.5-101.4c0-43.7,14.2-77.5,42.5-101.4c28.3-23.8,60.4-35.8,96.2-35.8c35.8,0,67.8,11.9,96.1,35.8
					C1147.2,1239.2,1161.3,1273,1161.3,1316.7z"/>
			</g>
		</g>
		<g>
			<g>
				<ellipse class="st5" cx="416.8" cy="691.2" rx="26.1" ry="26.1"/>
				
					<ellipse transform="matrix(0.1842 -0.9829 0.9829 0.1842 -370.4611 1038.5701)" class="st5" cx="440.4" cy="742.5" rx="14.7" ry="14.8"/>
				<g>
					<ellipse class="st5" cx="352.2" cy="559.5" rx="103" ry="103"/>
					<g>
						<circle class="st1" cx="312.7" cy="559.6" r="13"/>
						<circle class="st1" cx="352.3" cy="559.6" r="13"/>
						<circle class="st1" cx="391.8" cy="559.6" r="13"/>
					</g>
				</g>
			</g>
			<g>
				<g>
					<g>
						<path class="st6" d="M278.5,1402.3l9.6,37.1c2.5,9.7,11.9,16.2,22.2,15.5c31.5-2.1,97.1-9.9,134.7-37.6l-10.7-53.5
							c-51.7-2.9-100.1,0-142,14.1C281.9,1381.4,275.8,1392,278.5,1402.3z"/>
						<path class="st1" d="M338.8,1431.8c-0.5,0-1-0.4-1.2-0.9l-12.9-46.3c-0.2-0.7,0.2-1.4,0.9-1.5c0.7-0.2,1.4,0.2,1.5,0.9
							l12.9,46.3c0.2,0.7-0.2,1.4-0.9,1.5C339,1431.8,338.9,1431.8,338.8,1431.8z"/>
						<path class="st1" d="M366.7,1425.6c-0.5,0-1-0.4-1.2-0.9l-12.9-46.3c-0.2-0.7,0.2-1.4,0.9-1.5c0.7-0.2,1.4,0.2,1.5,0.9
							l12.9,46.3c0.2,0.7-0.2,1.4-0.9,1.5C366.9,1425.6,366.8,1425.6,366.7,1425.6z"/>
					</g>
					<polygon class="st4" points="399.1,1201.8 278.9,1237.5 368.2,1359.8 496.3,1370 673.1,1295.3 605.9,1194.2 					"/>
					<path class="st4" d="M547.3,1218.8c264-78.1,306.4,155.2-105.5,197.6c-14.5-16.4-31.5-44.8-38.3-68.5L621,1247.4L547.3,1218.8z
						"/>
					<path class="st7" d="M558.5,1386c-12.3-4-24.2-11.8-24.2-11.8l-42.4,13.3l9.7,46.2l44.1,9C559.1,1418.1,559.9,1398,558.5,1386z
						"/>
					<path class="st3" d="M404.5,1349.6l-1.9-3.2c45.4-26.4,161.6-89.7,260.6-108.4l0.7,3.7C565.5,1260.2,449.7,1323.3,404.5,1349.6
						z"/>
					<path class="st4" d="M399.1,1201.8c-245.7-46.7-309.3,189.4,102.5,231.9c14.5-16.4,26-35.7,32.7-59.5
						c-63.3-42.3-134-82.6-211.5-120.9L399.1,1201.8z"/>
					<path class="st3" d="M533.3,1375.9c-11.7-7.4-23.9-15.3-36.8-23.6c-64.7-41.8-138.1-89.2-200.4-116.2l1.5-3.4
						c62.6,27.1,136.1,74.6,201,116.5c12.9,8.3,25.1,16.2,36.7,23.6L533.3,1375.9z"/>
					<path class="st3" d="M218.8,1318.9l-3.3-1.8c9.2-16.7,24-28,43.9-33.5l1,3.6C241.3,1292.6,227.7,1302.9,218.8,1318.9z"/>
					<path class="st3" d="M731.7,1304.7c-8.8-16-22.5-26.4-41.6-31.7l1-3.6c19.9,5.5,34.7,16.8,43.9,33.5L731.7,1304.7z"/>
					<path class="st3" d="M478.6,1431.7l-2.7-2.6c19.7-21.1,31.7-43.3,36.9-67.9l3.7,0.8C511.1,1387.3,498.8,1410.1,478.6,1431.7z"
						/>
					<g>
						<path class="st6" d="M681.1,1372.3c-31.5-19.4-92.5,14.2-107.8,15.9c-4.5,0.5-9.6-0.5-14.7-2.1c1.4,11.9,0.6,32.1-12.8,56.6
							l7.5,1.5c0,0,51.8,19,106.7,7.9C710.5,1441.9,705.8,1387.6,681.1,1372.3z"/>
						<path class="st1" d="M638.2,1435.9c-0.1,0-0.3,0-0.4-0.1c-0.7-0.2-1-0.9-0.8-1.6c3.7-11.8,5.4-35.1-5.5-50.8
							c-0.4-0.6-0.3-1.3,0.3-1.7c0.6-0.4,1.3-0.3,1.7,0.3c11.3,16.4,9.7,40.7,5.8,53C639.2,1435.6,638.7,1435.9,638.2,1435.9z"/>
						<path class="st1" d="M613.5,1440.6c-0.1,0-0.3,0-0.4-0.1c-0.7-0.2-1-0.9-0.8-1.6c3.7-11.8,5.4-35.1-5.5-50.8
							c-0.4-0.6-0.3-1.3,0.3-1.7c0.6-0.4,1.3-0.3,1.7,0.3c11.3,16.4,9.7,40.7,5.8,53C614.5,1440.3,614,1440.6,613.5,1440.6z"/>
					</g>
				</g>
				<g>
					<g>
						<path class="st7" d="M355.6,897.4c0,0,61.9-52.6,59.6-62.6c-1.6-7.1-19.2,3.3-19.2,3.3s24.6-29.2,23.3-32.7
							c-2.2-6.3-19.2,5.5-19.2,5.5s11.5-16.5,6-19.2s-17.5,7.5-17.5,7.5s7-9.2,3.7-11.6c-3.3-2.4-17.5,7.5-17.5,7.5
							s5.1-11.6-5.7-7.2s-86.6,74-86.6,74L355.6,897.4z"/>
						<g>
							<path class="st8" d="M381,835c-0.3,0-0.6-0.1-0.8-0.3c-10.6-9.7-15.3-12.1-27-15.7c-0.7-0.2-1-0.9-0.8-1.6s0.9-1,1.6-0.8
								c12.1,3.7,17,6.2,28,16.2c0.5,0.5,0.5,1.3,0.1,1.8C381.6,834.8,381.3,835,381,835z"/>
							<path class="st8" d="M362.3,863.5c-0.1,0-0.1,0-0.2,0c-0.7-0.1-1.2-0.7-1.1-1.4c1.2-8.7,4-14.1,8.4-16.6
								c3.8-2.1,8.7-1.9,14.6,0.6c0.6,0.3,0.9,1,0.7,1.6c-0.3,0.6-1,0.9-1.6,0.7c-5.2-2.2-9.3-2.5-12.4-0.8c-3.6,2-6,7-7.1,14.8
								C363.5,863.1,362.9,863.5,362.3,863.5z"/>
							<path class="st8" d="M359.4,810.9c-0.3,0-0.7-0.1-0.9-0.4c-0.5-0.5-0.5-1.3,0.1-1.8l15.5-14.6c0.5-0.5,1.3-0.5,1.8,0.1
								c0.5,0.5,0.5,1.3-0.1,1.8l-15.5,14.6C360,810.8,359.7,810.9,359.4,810.9z"/>
							<path class="st8" d="M373.8,815.9c-0.3,0-0.6-0.1-0.9-0.3c-0.5-0.5-0.5-1.3,0-1.8l14.9-15.5c0.5-0.5,1.3-0.5,1.8,0
								s0.5,1.3,0,1.8l-14.9,15.5C374.4,815.8,374.1,815.9,373.8,815.9z"/>
							<path class="st8" d="M388.5,824.7c-0.3,0-0.6-0.1-0.9-0.3c-0.5-0.5-0.5-1.3-0.1-1.8l11.7-12.6c0.5-0.5,1.3-0.5,1.8-0.1
								c0.5,0.5,0.5,1.3,0.1,1.8l-11.7,12.6C389.1,824.5,388.8,824.7,388.5,824.7z"/>
						</g>
					</g>
					<g>
						<path class="st9" d="M589.4,1249.3l-226.3,8.8l-25-206.3c0,0,75.7-71.8,104.9-98.3l49.2-2.5
							C644.9,1020.4,619.9,1107,589.4,1249.3z"/>
						<path class="st9" d="M492.2,951c0,0,174.6,14.9,229.7,134.6c53.9,117.1-167.5,158.8-167.5,158.8L492.2,951z"/>
						<path class="st9" d="M292.6,976.7l72.2-87.8L297.3,848c-28.1,19.6-82.6,63.9-128.7,114.1c-10.2,11.1-18.1,24-22.1,38.3
							c-3.4,12.2-4,24.2-2.1,35.9l0,0c5,30.7,29.1,54.3,61.3,58.1c27.5,3.2,132.5-5,217.5-30l25-96.5
							C435.3,960.6,339.8,959.3,292.6,976.7z"/>
					</g>
					<g class="st10">
						<path class="st1" d="M638,998.5c0.4-0.1,0.8-0.2,1.1-0.3c-0.8-0.5-1.6-0.9-2.4-1.4c-12.8,2.9-26,6-39,7.5
							c-7.8,0.9-34,2.7-41.6-14.7c-3.8-8.7-0.9-18.3,3.4-25.1c-0.6-0.2-1.2-0.4-1.9-0.5c-4.4,7.2-7.2,17.2-3.2,26.3
							c8.2,18.6,35.4,16.8,43.5,15.9C611.3,1004.6,624.9,1001.5,638,998.5z"/>
						<path class="st1" d="M719.4,1133.4c-8.3-3.2-17-6.6-26-5.7c-15.9,1.5-29.5,17.2-30.3,35c-0.6,12.1,4.1,24.9,12.9,36.1
							c0.5-0.3,1.1-0.7,1.6-1c-8.6-10.9-13.2-23.2-12.6-35c0.8-16.9,13.6-31.8,28.6-33.3c8.6-0.8,16.7,2.3,25.2,5.6
							c3,1.2,6.1,2.4,9.3,3.4c0.2-0.6,0.3-1.2,0.5-1.8C725.4,1135.7,722.4,1134.6,719.4,1133.4z"/>
						<path class="st1" d="M278.7,1073.8c-10.9-9-27.8-11.4-46.5-6.6c-16.6,4.3-30.8,12.8-40.6,24.1c0.6,0.2,1.3,0.4,1.9,0.6
							c9.5-10.7,23.2-18.7,39.2-22.9c18-4.7,34.4-2.4,44.8,6.2c5,4.1,8.5,9.4,11,15.2c0.6-0.1,1.3-0.1,1.9-0.2
							C287.8,1084,284.1,1078.2,278.7,1073.8z"/>
						<path class="st1" d="M180.1,949.8c20.4-5.1,40.4-12.2,58.7-22.8c6.9-4,14.8-9.1,20.3-16.6c5.9-8,7.8-17.5,5.2-25.4
							c-1-3.1-2.8-5.8-5.1-8c-0.5,0.4-1,0.8-1.4,1.2c2.1,2,3.8,4.5,4.7,7.4c2.4,7.3,0.6,16.2-4.9,23.7c-5.3,7.2-13,12.2-19.7,16.1
							c-17.3,10-36.1,16.9-55.4,21.9C181.8,948.1,181,948.9,180.1,949.8z"/>
					</g>
					<g>
						<path class="st7" d="M508.2,905.2v3.2l-0.5,49.7l-0.1,5.4c-0.1,8.4-3.5,16.1-9.1,21.6c-5.5,5.5-13.2,9-21.6,9
							c-17.1,0.1-31-13.6-31.2-30.7l-0.6-61.5L508.2,905.2z"/>
						<path class="st6" d="M508.2,908.4l-0.5,49.7c-27.6-11.3-39-41.2-39-41.2L508.2,908.4z"/>
						<path class="st7" d="M519.1,821.6c9.9,11.9,38.8,79.2,9.5,102.2c-33,25.9-83.2-16.6-83.2-16.6l-6.7-78.4l43.6-11.5
							L519.1,821.6z"/>
						<path class="st6" d="M416.5,817.3c0,0-96.7,50.4-17.8,195.7c10.1,18.7,32.5,26.8,51.7,17.7l0,0c20.6-9.8,28.4-34.9,17.2-54.8
							c-12.9-22.9-25.3-52.4-20-74.3L416.5,817.3z"/>
						<ellipse class="st4" cx="425.5" cy="841.1" rx="26.1" ry="26.1"/>
						<path class="st6" d="M457.8,872.5c-2.8-16.3-4.5-27.5,11.9-35.9c0,0,58.1,10.6,69.2-11.4c11.1-21.9-5.8-56.5-41.2-32.5
							c-90.6-17.7-102.7,67.1-75.3,95.4l27.1-4.2C455,883.1,458.7,878,457.8,872.5z"/>
						<g>
							<circle class="st6" cx="502.8" cy="872.6" r="3.9"/>
							<circle class="st6" cx="528.9" cy="859.7" r="3.9"/>
							<path class="st6" d="M526.2,884.5c-0.3,0-0.5-0.1-0.8-0.3c-0.4-0.4-0.5-1.1,0-1.5c1.5-1.6,3.2-3.9,2.5-5.6s-3.9-2.5-5.3-2.5
								c-3.1,0-4.6-5.5-4.8-6.6c-0.1-0.6,0.2-1.2,0.8-1.3c0.6-0.1,1.2,0.2,1.3,0.8c0.6,2.3,1.8,4.9,2.7,4.9c1.5,0,6,0.7,7.3,3.8
								c1,2.2,0,4.9-3,8C526.8,884.4,526.5,884.5,526.2,884.5z"/>
							<path class="st6" d="M526.4,899.1c-0.2,0-0.4-0.1-0.6-0.2c-7.3-4.9-14.6-0.8-14.7-0.8c-0.5,0.3-1.2,0.1-1.5-0.4
								s-0.1-1.2,0.4-1.5c0.3-0.2,8.6-4.8,17,0.8c0.5,0.3,0.6,1,0.3,1.5C527.1,899,526.8,899.1,526.4,899.1z"/>
							<path class="st6" d="M501.1,855.9c2.2,4.1-1.6,5-6.1,7.4s-9.1,3.3-10.1,1.3s1.7-5.5,6.2-7.9S499.4,852.7,501.1,855.9z"/>
							<path class="st6" d="M517.4,848.4c1,3.7,3.7,2.1,7.7,1s7.2-3.1,6.8-4.8c-0.5-1.8-4.1-2.3-8.1-1.3
								C519.9,844.4,516.7,845.5,517.4,848.4z"/>
						</g>
						<ellipse class="st11" cx="484.9" cy="890.6" rx="11.4" ry="11.4"/>
						
							<ellipse transform="matrix(0.6109 -0.7917 0.7917 0.6109 -533.2057 696.1954)" class="st7" cx="441.7" cy="890.6" rx="15.4" ry="17.5"/>
						<path class="st6" d="M448.5,896.4c-0.6,0-1.1-0.5-1.1-1.1c0-3.2-1.6-6.2-4.2-8c-2.3-1.5-4.9-1.9-7.2-1c-0.6,0.2-1.2,0-1.4-0.6
							s0-1.2,0.6-1.4c2.9-1.2,6.4-0.8,9.2,1.2c3.2,2.2,5.2,5.8,5.2,9.8C449.6,895.9,449.1,896.4,448.5,896.4z"/>
					</g>
					<g>
						
							<rect x="243.7" y="996.7" transform="matrix(0.6788 -0.7343 0.7343 0.6788 -645.1694 520.8163)" class="st6" width="58.1" height="2.5"/>
						<path class="st6" d="M569.8,1159.3l-0.7-2.4c28.7-8.8,56.6-19.2,81.9-50.8l2,1.6C627.2,1139.8,598.9,1150.4,569.8,1159.3z"/>
					</g>
				</g>
				<g>
					<g>
						<path class="st5" d="M587.2,1062.5H342.8c-8.8,0-15.9,7.7-15.9,17.2v174.5c0,9.5,7.1,17.2,15.9,17.2h244.4
							c8.8,0,15.9-7.7,15.9-17.2v-174.5C603.2,1070.2,596,1062.5,587.2,1062.5z"/>
					</g>
					<g>
						<path class="st12" d="M477.9,1155.9c0.9,0,1.7,0.8,1.7,1.8v18.4c0,1-0.8,1.8-1.7,1.8h-25.8c-0.9,0-1.7-0.8-1.7-1.8v-18.4
							c0-1,0.8-1.8,1.7-1.8H477.9 M477.9,1150.9h-25.8c-3.7,0-6.7,3.1-6.7,6.8v18.4c0,3.8,3,6.8,6.7,6.8h25.8c3.7,0,6.7-3.1,6.7-6.8
							v-18.4C484.6,1154,481.6,1150.9,477.9,1150.9L477.9,1150.9z"/>
					</g>
				</g>
			</g>
		</g>
		<rect x="62.2" y="1451.8" class="st6" width="1473.7" height="5"/>
	</g>
</g>
</svg>
